<svg id="Слой_1" data-name="Слой 1" xmlns="http://www.w3.org/2000/svg" xmlns:xlink="http://www.w3.org/1999/xlink" viewBox="0 0 1920 908"><defs><style>.cls-1{fill:url(#Безымянный_градиент_41);}.cls-2{fill:url(#Безымянный_градиент_41-2);}.cls-3{fill:url(#Безымянный_градиент_41-3);}.cls-4{fill:url(#Безымянный_градиент_41-4);}</style><linearGradient id="Безымянный_градиент_41" y1="449.14" x2="1920" y2="449.14" gradientTransform="matrix(-1, 0, 0, 1, 1920, 0)" gradientUnits="userSpaceOnUse"><stop offset="0" stop-color="#41cadc"/><stop offset="1" stop-color="#254979"/></linearGradient><linearGradient id="Безымянный_градиент_41-2" x1="17.04" y1="108.34" x2="2088.58" y2="108.34" gradientTransform="matrix(0.94, 0.35, 0.35, -0.94, -62.77, 247.19)" xlink:href="#Безымянный_градиент_41"/><linearGradient id="Безымянный_градиент_41-3" x1="1620.57" y1="773.06" x2="1620.57" y2="773.06" gradientTransform="matrix(1, 0, 0, 1, 0, 0)" xlink:href="#Безымянный_градиент_41"/><linearGradient id="Безымянный_градиент_41-4" x1="1576.74" y1="756.61" x2="1576.74" y2="756.61" gradientTransform="matrix(1, 0, 0, 1, 0, 0)" xlink:href="#Безымянный_градиент_41"/></defs><title>background</title><g id="Слой_2" data-name="Слой 2"><path class="cls-1" d="M0,229V802C216,672,507,494,1044,433c455.35-51.73,876,73,876,73V358c-159.76-80-366.7-162.48-616-213C733,29.3,254.93,145.17,0,229Z" transform="translate(0)"/><path class="cls-2" d="M144,0s417.71,328.53,860,454c282,80,433.78,122.24,916,129V908H1237S910,802,668,626C462.28,476.39,169.56,130.94,48,0Z" transform="translate(0)"/><path class="cls-3" d="M1620.57,773.06" transform="translate(0)"/><path class="cls-4" d="M1576.74,756.61" transform="translate(0)"/></g></svg>