<?xml version="1.0"?>
<svg xmlns="http://www.w3.org/2000/svg" xmlns:xlink="http://www.w3.org/1999/xlink" version="1.1" id="Capa_1" x="0px" y="0px" width="50px" height="50px" viewBox="0 0 64 64" style="enable-background:new 0 0 64 64;" xml:space="preserve" class=""><g><g>
	<g>
		<g id="circle">
			<g>
				<path d="M18.438,32H22v14h20V32h3.562L32,18.406L18.438,32z M32,0C14.327,0,0,14.327,0,32s14.327,32,32,32s32-14.327,32-32      S49.673,0,32,0z M46.018,34h-2.002v12c0,1.104-0.896,2-1.998,2h-4.002l0,0H26.017c0,0,0,0-0.001,0h-4c-1.104,0-2-0.896-2-2V36      c-0.003,0-0.005,0.002-0.008,0.002V36h0.008v-2h-2c-1.104,0-2-0.896-2-2h-0.038c0.004-0.102,0.06-0.192,0.097-0.287      c0.121-0.811,0.708-1.438,1.496-1.623l13.932-13.904c0.321-0.321,0.644-0.321,0.965,0l13.916,13.889      c0.923,0.178,1.634,0.951,1.634,1.926C48.016,33.104,47.12,34,46.018,34z" data-original="#000000" class="active-path" data-old_color="#FfFfFf" fill="#FFFFFF"/>
			</g>
		</g>
	</g>
</g></g> </svg>
